<mxfile host="app.diagrams.net" agent="Mozilla/5.0 (X11; Linux x86_64) AppleWebKit/537.36 (KHTML, like Gecko) Chrome/127.0.0.0 Safari/537.36" version="24.7.7">
  <diagram name="Page-1" id="wa34_8keR421BOc25Nhl">
    <mxGraphModel dx="1594" dy="1001" grid="1" gridSize="11" guides="1" tooltips="1" connect="1" arrows="1" fold="1" page="0" pageScale="1" pageWidth="827" pageHeight="1169" math="0" shadow="0">
      <root>
        <mxCell id="0" />
        <mxCell id="1" parent="0" />
        <mxCell id="KDvQVuyPkOHPgjQYCtqE-4" value="&lt;font style=&quot;font-size: 20px;&quot;&gt;e.e&lt;/font&gt;" style="rounded=0;whiteSpace=wrap;html=1;fillColor=#f8cecc;strokeColor=#b85450;" vertex="1" parent="1">
          <mxGeometry x="161" y="171" width="80" height="50" as="geometry" />
        </mxCell>
        <mxCell id="KDvQVuyPkOHPgjQYCtqE-5" value="&lt;font style=&quot;font-size: 20px;&quot;&gt;e.x = 1.2&lt;/font&gt;" style="rounded=0;whiteSpace=wrap;html=1;fillColor=#f8cecc;strokeColor=#b85450;" vertex="1" parent="1">
          <mxGeometry x="80" y="171" width="80" height="50" as="geometry" />
        </mxCell>
        <mxCell id="KDvQVuyPkOHPgjQYCtqE-19" style="edgeStyle=orthogonalEdgeStyle;rounded=0;orthogonalLoop=1;jettySize=auto;html=1;exitX=0.25;exitY=0;exitDx=0;exitDy=0;entryX=0;entryY=0;entryDx=0;entryDy=0;" edge="1" parent="1" source="KDvQVuyPkOHPgjQYCtqE-6" target="KDvQVuyPkOHPgjQYCtqE-4">
          <mxGeometry relative="1" as="geometry" />
        </mxCell>
        <mxCell id="KDvQVuyPkOHPgjQYCtqE-6" value="&lt;font style=&quot;font-size: 20px;&quot;&gt;ep&lt;/font&gt;" style="rounded=0;whiteSpace=wrap;html=1;fillColor=#f8cecc;strokeColor=#b85450;" vertex="1" parent="1">
          <mxGeometry x="299" y="172" width="80" height="50" as="geometry" />
        </mxCell>
        <mxCell id="KDvQVuyPkOHPgjQYCtqE-41" style="edgeStyle=orthogonalEdgeStyle;rounded=0;orthogonalLoop=1;jettySize=auto;html=1;entryX=0;entryY=0;entryDx=0;entryDy=0;" edge="1" parent="1" source="KDvQVuyPkOHPgjQYCtqE-7" target="KDvQVuyPkOHPgjQYCtqE-40">
          <mxGeometry relative="1" as="geometry" />
        </mxCell>
        <mxCell id="KDvQVuyPkOHPgjQYCtqE-7" value="&lt;font style=&quot;font-size: 20px;&quot;&gt;eq&lt;/font&gt;" style="rounded=0;whiteSpace=wrap;html=1;fillColor=#f8cecc;strokeColor=#b85450;" vertex="1" parent="1">
          <mxGeometry x="431" y="173" width="80" height="50" as="geometry" />
        </mxCell>
        <mxCell id="KDvQVuyPkOHPgjQYCtqE-16" value="&lt;font style=&quot;font-size: 20px;&quot;&gt;x&lt;/font&gt;" style="rounded=0;whiteSpace=wrap;html=1;fillColor=#f8cecc;strokeColor=#b85450;" vertex="1" parent="1">
          <mxGeometry x="157" y="286" width="80" height="50" as="geometry" />
        </mxCell>
        <mxCell id="KDvQVuyPkOHPgjQYCtqE-17" value="&lt;font style=&quot;font-size: 20px;&quot;&gt;e&lt;/font&gt;" style="rounded=0;whiteSpace=wrap;html=1;fillColor=#f8cecc;strokeColor=#b85450;" vertex="1" parent="1">
          <mxGeometry x="237" y="286" width="80" height="50" as="geometry" />
        </mxCell>
        <mxCell id="KDvQVuyPkOHPgjQYCtqE-20" style="edgeStyle=orthogonalEdgeStyle;rounded=0;orthogonalLoop=1;jettySize=auto;html=1;exitX=0.5;exitY=1;exitDx=0;exitDy=0;entryX=0.917;entryY=0.027;entryDx=0;entryDy=0;entryPerimeter=0;" edge="1" parent="1" source="KDvQVuyPkOHPgjQYCtqE-4" target="KDvQVuyPkOHPgjQYCtqE-16">
          <mxGeometry relative="1" as="geometry" />
        </mxCell>
        <mxCell id="KDvQVuyPkOHPgjQYCtqE-21" style="edgeStyle=orthogonalEdgeStyle;rounded=0;orthogonalLoop=1;jettySize=auto;html=1;exitX=1;exitY=0.25;exitDx=0;exitDy=0;" edge="1" parent="1" source="KDvQVuyPkOHPgjQYCtqE-17">
          <mxGeometry relative="1" as="geometry">
            <mxPoint x="275" y="385" as="targetPoint" />
          </mxGeometry>
        </mxCell>
        <mxCell id="KDvQVuyPkOHPgjQYCtqE-26" style="edgeStyle=orthogonalEdgeStyle;rounded=0;orthogonalLoop=1;jettySize=auto;html=1;exitX=0;exitY=0.5;exitDx=0;exitDy=0;entryX=0.25;entryY=1;entryDx=0;entryDy=0;" edge="1" parent="1">
          <mxGeometry relative="1" as="geometry">
            <mxPoint x="401" y="520" as="sourcePoint" />
            <mxPoint x="194" y="221" as="targetPoint" />
            <Array as="points">
              <mxPoint x="80" y="520" />
              <mxPoint x="80" y="242" />
              <mxPoint x="194" y="242" />
            </Array>
          </mxGeometry>
        </mxCell>
        <mxCell id="KDvQVuyPkOHPgjQYCtqE-24" value="&lt;font style=&quot;font-size: 20px;&quot;&gt;*epp&lt;/font&gt;" style="rounded=0;whiteSpace=wrap;html=1;fillColor=#f8cecc;strokeColor=#b85450;" vertex="1" parent="1">
          <mxGeometry x="396" y="495" width="80" height="50" as="geometry" />
        </mxCell>
        <mxCell id="KDvQVuyPkOHPgjQYCtqE-33" value="&lt;font style=&quot;font-size: 20px;&quot;&gt;Function&lt;/font&gt;" style="text;html=1;align=center;verticalAlign=middle;resizable=0;points=[];autosize=1;strokeColor=none;fillColor=none;" vertex="1" parent="1">
          <mxGeometry x="386.5" y="440" width="99" height="33" as="geometry" />
        </mxCell>
        <mxCell id="KDvQVuyPkOHPgjQYCtqE-38" style="edgeStyle=orthogonalEdgeStyle;rounded=0;orthogonalLoop=1;jettySize=auto;html=1;exitX=0.75;exitY=1;exitDx=0;exitDy=0;" edge="1" parent="1" source="KDvQVuyPkOHPgjQYCtqE-37">
          <mxGeometry relative="1" as="geometry">
            <mxPoint x="601.1428571428573" y="583" as="targetPoint" />
          </mxGeometry>
        </mxCell>
        <mxCell id="KDvQVuyPkOHPgjQYCtqE-37" value="&lt;font style=&quot;font-size: 20px;&quot;&gt;ep&lt;/font&gt;" style="rounded=0;whiteSpace=wrap;html=1;fillColor=#f8cecc;strokeColor=#b85450;" vertex="1" parent="1">
          <mxGeometry x="541" y="495" width="80" height="50" as="geometry" />
        </mxCell>
        <mxCell id="KDvQVuyPkOHPgjQYCtqE-39" value="&lt;span style=&quot;font-size: 20px;&quot;&gt;&amp;nbsp;x= 1.2&lt;/span&gt;" style="rounded=0;whiteSpace=wrap;html=1;fillColor=#f8cecc;strokeColor=#b85450;" vertex="1" parent="1">
          <mxGeometry x="554" y="583" width="80" height="50" as="geometry" />
        </mxCell>
        <mxCell id="KDvQVuyPkOHPgjQYCtqE-40" value="&lt;font style=&quot;font-size: 20px;&quot;&gt;e = NULL&lt;/font&gt;" style="rounded=0;whiteSpace=wrap;html=1;fillColor=#f8cecc;strokeColor=#b85450;" vertex="1" parent="1">
          <mxGeometry x="635" y="583" width="80" height="50" as="geometry" />
        </mxCell>
        <mxCell id="KDvQVuyPkOHPgjQYCtqE-42" value="" style="whiteSpace=wrap;html=1;aspect=fixed;fillColor=none;" vertex="1" parent="1">
          <mxGeometry x="352" y="421" width="374" height="374" as="geometry" />
        </mxCell>
      </root>
    </mxGraphModel>
  </diagram>
</mxfile>
